<svg width="50" height="50" viewBox="0 0 50 50" fill="none" xmlns="http://www.w3.org/2000/svg">
<path d="M24.9999 31.25C26.736 31.25 28.2117 30.6423 29.427 29.4271C30.6423 28.2118 31.2499 26.7361 31.2499 25C31.2499 23.2639 30.6423 21.7882 29.427 20.5729C28.2117 19.3576 26.736 18.75 24.9999 18.75C23.2638 18.75 21.7881 19.3576 20.5728 20.5729C19.3576 21.7882 18.7499 23.2639 18.7499 25C18.7499 26.7361 19.3576 28.2118 20.5728 29.4271C21.7881 30.6423 23.2638 31.25 24.9999 31.25ZM24.9999 35.4166C22.118 35.4166 19.6614 34.401 17.6301 32.3698C15.5989 30.3385 14.5833 27.8819 14.5833 25C14.5833 22.118 15.5989 19.6614 17.6301 17.6302C19.6614 15.5989 22.118 14.5833 24.9999 14.5833C27.8819 14.5833 30.3385 15.5989 32.3697 17.6302C34.401 19.6614 35.4166 22.118 35.4166 25C35.4166 27.8819 34.401 30.3385 32.3697 32.3698C30.3385 34.401 27.8819 35.4166 24.9999 35.4166ZM10.4166 27.0833H2.08325V22.9166H10.4166V27.0833ZM47.9166 27.0833H39.5833V22.9166H47.9166V27.0833ZM22.9166 10.4166V2.08331H27.0833V10.4166H22.9166ZM22.9166 47.9166V39.5833H27.0833V47.9166H22.9166ZM13.3333 16.1458L8.07283 11.0937L11.0416 8.02081L16.0416 13.2291L13.3333 16.1458ZM38.9583 41.9791L33.9062 36.7187L36.6666 33.8541L41.927 38.9062L38.9583 41.9791ZM33.8541 13.3333L38.9062 8.0729L41.9791 11.0416L36.7708 16.0416L33.8541 13.3333ZM8.02075 38.9583L13.2812 33.9062L16.1458 36.6666L11.0937 41.9271L8.02075 38.9583Z" fill="#F9F9FB"/>
</svg>
