<svg width="40" height="40" viewBox="0 0 40 40" fill="none" xmlns="http://www.w3.org/2000/svg">
<circle cx="20" cy="20" r="20" fill="#1E1F24" fill-opacity="0.9"/>
<path d="M11.7226 29.2728C11.2513 29.2728 10.8464 29.1036 10.5077 28.7651C10.1692 28.4265 10 28.0215 10 27.5503V16.6168C10 16.1567 10.1692 15.7525 10.5077 15.4043C10.8464 15.056 11.2513 14.8818 11.7226 14.8818H14.6485L16.3587 12.99H22.4151V14.725H17.1028L15.368 16.6168H11.7226V27.5503H26.2874V18.5851H28.0224V27.5503C28.0224 28.0215 27.8482 28.4265 27.4998 28.7651C27.1516 29.1036 26.7475 29.2728 26.2874 29.2728H11.7226ZM26.57 16.4106V14.4423H24.5896V12.99H26.57V11H28.0284V12.99H30V14.4423H28.0284V16.4106H26.57ZM18.9913 25.8429C20.0688 25.8429 20.9688 25.4826 21.6913 24.762C22.4139 24.0412 22.7752 23.1442 22.7752 22.0709C22.7752 20.9975 22.4149 20.101 21.6943 19.3816C20.9736 18.6621 20.0765 18.3024 19.0032 18.3024C17.9298 18.3024 17.0333 18.6608 16.3139 19.3777C15.5945 20.0945 15.2347 20.9883 15.2347 22.0589C15.2347 23.1365 15.5931 24.0365 16.31 24.7589C17.0268 25.4816 17.9206 25.8429 18.9913 25.8429ZM18.9941 24.2925C18.3547 24.2925 17.8267 24.0806 17.41 23.6567C16.9934 23.2329 16.7851 22.7012 16.7851 22.0618C16.7851 21.4223 16.9934 20.8923 17.41 20.4716C17.8267 20.0509 18.3547 19.8406 18.9941 19.8406C19.6335 19.8406 20.1672 20.0509 20.5951 20.4716C21.0231 20.8923 21.237 21.4223 21.237 22.0618C21.237 22.7012 21.0231 23.2329 20.5951 23.6567C20.1672 24.0806 19.6335 24.2925 18.9941 24.2925Z" fill="#FCFCFD"/>
</svg>
