<svg width="20" height="21" viewBox="0 0 20 21" fill="none" xmlns="http://www.w3.org/2000/svg">
<path d="M6.35716 20.368C4.58724 20.368 3.08523 19.7692 1.85114 18.5717C0.617046 17.3742 0 15.9168 0 14.1993C0 13.3792 0.16564 12.5884 0.496921 11.8268C0.828202 11.0652 1.29621 10.3877 1.90094 9.79413L9.07631 2.77954C9.68389 2.22789 10.38 1.78693 11.1647 1.45664C11.9493 1.12617 12.7654 0.960938 13.6129 0.960938C15.3785 0.960938 16.8844 1.5635 18.1307 2.76863C19.3769 3.97358 20 5.44023 20 7.1686C20 7.98004 19.8297 8.76723 19.4892 9.53018C19.1488 10.2931 18.6943 10.97 18.1258 11.5608L10.8969 18.5234C10.2865 19.1102 9.58965 19.5643 8.80643 19.8858C8.0232 20.2073 7.20678 20.368 6.35716 20.368ZM13.6546 12.522L16.3904 9.86298C16.7436 9.50272 17.0274 9.09588 17.2418 8.64244C17.4563 8.189 17.5636 7.70119 17.5636 7.17899C17.5636 6.12316 17.1746 5.21689 16.3965 4.46018C15.6185 3.70347 14.6866 3.32512 13.6008 3.32512C13.0541 3.32512 12.5478 3.42921 12.0819 3.6374C11.6159 3.84541 11.1972 4.1208 10.826 4.46356L8.08568 7.1182L13.6546 12.522ZM6.36332 17.9778C6.912 17.9778 7.42097 17.8782 7.89023 17.6791C8.35966 17.4799 8.78162 17.2171 9.15609 16.8906L11.8876 14.2107L6.34538 8.83287L3.58233 11.4885C3.22892 11.8485 2.95404 12.254 2.7577 12.7052C2.56136 13.1564 2.46319 13.6464 2.46319 14.1754C2.46319 15.2362 2.84328 16.1352 3.60348 16.8724C4.36368 17.6093 5.28362 17.9778 6.36332 17.9778Z" fill="#CDCED7"/>
<path d="M13.6546 12.522L16.3904 9.86298C16.7436 9.50272 17.0274 9.09588 17.2418 8.64244C17.4563 8.189 17.5636 7.70119 17.5636 7.17899C17.5636 6.12316 17.1746 5.21689 16.3965 4.46018C15.6185 3.70347 14.6866 3.32512 13.6008 3.32512C13.0541 3.32512 12.5478 3.42921 12.0819 3.6374C11.6159 3.84541 11.1972 4.1208 10.826 4.46356L8.08568 7.1182L13.6546 12.522Z" fill="#1A8BCA"/>
</svg>
