<svg width="20" height="20" viewBox="0 0 20 20" fill="none" xmlns="http://www.w3.org/2000/svg">
<path d="M3.18332 0.553833V1.51247V3.47235V4.45229H5.20307V0.553833H3.18332Z" fill="#1A8BCA"/>
<path fill-rule="evenodd" clip-rule="evenodd" d="M11.5587 19.3005C9.69265 19.3005 8.14124 18.6677 6.9045 17.4022C5.66776 16.1366 5.0494 14.6107 5.0494 12.8244V12.3983C3.60044 12.1995 2.39663 11.5789 1.43798 10.5364C0.479327 9.494 0 8.24706 0 6.79562V1.51247H3.18332V3.47235H2.01976V6.7888C2.01976 7.83435 2.40242 8.71821 3.16773 9.44039C3.93319 10.1626 4.8614 10.5236 5.95236 10.5236C7.04347 10.5236 7.97805 10.1626 8.75609 9.44039C9.53414 8.71821 9.92316 7.83435 9.92316 6.7888V3.47235H8.73765V1.51247H11.921V6.79562C11.921 8.21909 11.4563 9.44834 10.5269 10.4834C9.59751 11.5186 8.43762 12.1427 7.0472 12.3557V12.822C7.0472 14.0488 7.46974 15.1086 8.31482 16.0013C9.16004 16.8942 10.2459 17.3406 11.5723 17.3406C12.8 17.3406 13.8529 16.9023 14.7311 16.0256C15.6092 15.149 16.0483 14.0835 16.0483 12.8291V11.3119C15.4921 11.1272 15.0274 10.7822 14.6542 10.2767C14.281 9.77115 14.0944 9.22217 14.0944 8.62981C14.0944 7.82399 14.377 7.14286 14.9423 6.58642C15.5075 6.02999 16.2061 5.75177 17.0382 5.75177C17.8703 5.75177 18.5719 6.03119 19.1431 6.59004C19.7144 7.14875 20 7.82732 20 8.62576C20 9.22082 19.8134 9.77115 19.4402 10.2767C19.067 10.7822 18.6023 11.1272 18.0461 11.3119V12.8244C18.0461 14.6276 17.4131 16.1577 16.1471 17.4147C14.8811 18.6719 13.3516 19.3005 11.5587 19.3005ZM17.0433 9.67153C17.3671 9.67153 17.6299 9.57346 17.8314 9.37733C18.0331 9.1812 18.1339 8.93259 18.1339 8.63151C18.1339 8.32432 18.0344 8.0694 17.8353 7.86673C17.6362 7.66393 17.3746 7.56253 17.0507 7.56253C16.7268 7.56253 16.4641 7.66265 16.2626 7.8629C16.0612 8.06329 15.9605 8.31708 15.9605 8.62427C15.9605 8.93146 16.0615 9.18283 16.2637 9.3784C16.4658 9.57382 16.7257 9.67153 17.0433 9.67153Z" fill="#CDCED7"/>
<path d="M8.73765 4.45229V3.47235V1.51247V0.553833H6.73985V4.45229H8.73765Z" fill="#1A8BCA"/>
</svg>
