<svg width="20" height="20" viewBox="0 0 20 20" fill="none" xmlns="http://www.w3.org/2000/svg">
<path fillRule="evenodd" clipRule="evenodd" d="M6.90782 16.8532L7.3979 19.865H12.6021L13.0922 16.8532C13.2789 16.8079 13.5084 16.706 13.7806 16.5475C14.0529 16.389 14.2746 16.2418 14.4457 16.1059L17.3396 17.3967L20 12.8676L17.3162 11.0334C17.3318 10.9343 17.3512 10.8173 17.3746 10.6824C17.3979 10.5474 17.4096 10.4304 17.4096 10.3314C17.4096 10.2323 17.3979 10.1115 17.3746 9.96903C17.3512 9.82652 17.3318 9.69819 17.3162 9.58406L20 7.74979L17.3862 3.26601L14.4457 4.5568C14.2746 4.43602 14.0607 4.30015 13.804 4.14918C13.5473 3.99821 13.3022 3.89253 13.0688 3.83214L12.6021 0.775024H7.3979L6.90782 3.85479C6.70556 3.91518 6.47172 4.01912 6.2063 4.16662C5.94103 4.31426 5.73147 4.44432 5.5776 4.5568L2.63711 3.26601L0 7.74979L2.63711 9.65199C2.62155 9.76386 2.61377 9.88071 2.61377 10.0025V10.6869C2.61377 10.8283 2.62155 10.9351 2.63711 11.0071L0 12.8676L2.63711 17.3967L5.53092 16.1059C5.70704 16.2472 5.9261 16.392 6.1881 16.5403C6.4501 16.6885 6.69 16.7928 6.90782 16.8532ZM10.8135 17.8043H9.17153L8.84481 15.3133C8.30027 15.2077 7.78685 15.0189 7.30455 14.7472C6.82225 14.4755 6.38662 14.1358 5.99767 13.7282L3.5706 14.7925L2.8238 13.4564L4.97083 11.9392C4.89304 11.7127 4.83469 11.4636 4.7958 11.1919C4.7569 10.9201 4.73746 10.6374 4.73746 10.3438C4.73746 10.0487 4.7569 9.76522 4.7958 9.49348C4.83469 9.22173 4.89304 8.95754 4.97083 8.70089L2.8238 7.2063L3.57713 5.87022L5.99767 6.91191C6.37106 6.51939 6.8028 6.18726 7.29288 5.91552C7.78296 5.64377 8.30027 5.45506 8.84481 5.34938L9.14819 2.85839H10.8285L11.1459 5.34938C11.7098 5.40086 12.2297 5.57229 12.7055 5.86366C13.1811 6.15488 13.5992 6.51184 13.9599 6.93456L16.4294 5.87022L17.1762 7.2063L15.0058 8.74618C15.0681 8.98773 15.1225 9.24438 15.1692 9.51612C15.2159 9.78787 15.2392 10.0603 15.2392 10.3334C15.2392 10.6065 15.2159 10.8758 15.1692 11.1414C15.1225 11.4069 15.0603 11.6729 14.9825 11.9392L17.1529 13.4564L16.4294 14.7925L13.9599 13.7282C13.5792 14.1358 13.1526 14.4641 12.6803 14.7132C12.2081 14.9623 11.7017 15.1548 11.161 15.2907L10.8135 17.8043Z" fill="#CDCED7"/>
<path d="M10.035 13.9546L13.3022 10.7843C13.5667 10.5276 13.7378 10.2144 13.8156 9.84448C13.8934 9.47461 13.8545 9.11605 13.6989 8.76883C13.5434 8.4216 13.31 8.14231 12.9988 7.93095C12.6877 7.71959 12.3376 7.61392 11.9487 7.61392C11.5597 7.61392 11.2096 7.73092 10.8985 7.96492C10.5873 8.19892 10.2995 8.44424 10.035 8.70089C9.75496 8.44424 9.46324 8.19892 9.15986 7.96492C8.85648 7.73092 8.51031 7.61392 8.12135 7.61392C7.7324 7.61392 7.37845 7.71582 7.05951 7.91963C6.74057 8.12344 6.50331 8.39895 6.34772 8.74618C6.19214 9.09341 6.15714 9.45196 6.24271 9.82183C6.32828 10.1917 6.50331 10.5125 6.76779 10.7843L10.035 13.9546Z" fill="#1A8BCA"/>
</svg>
