<svg width="50" height="50" viewBox="0 0 46 46" fill="none" xmlns="http://www.w3.org/2000/svg">
<path d="M23 29.2499C24.7362 29.2499 26.2118 28.6423 27.4271 27.427C28.6424 26.2117 29.25 24.736 29.25 22.9999C29.25 21.2638 28.6424 19.7881 27.4271 18.5728C26.2118 17.3576 24.7362 16.7499 23 16.7499C21.2639 16.7499 19.7882 17.3576 18.573 18.5728C17.3577 19.7881 16.75 21.2638 16.75 22.9999C16.75 24.736 17.3577 26.2117 18.573 27.427C19.7882 28.6423 21.2639 29.2499 23 29.2499ZM23 33.4166C20.1181 33.4166 17.6615 32.401 15.6302 30.3697C13.599 28.3385 12.5834 25.8819 12.5834 22.9999C12.5834 20.118 13.599 17.6614 15.6302 15.6301C17.6615 13.5989 20.1181 12.5833 23 12.5833C25.882 12.5833 28.3386 13.5989 30.3698 15.6301C32.4011 17.6614 33.4167 20.118 33.4167 22.9999C33.4167 25.8819 32.4011 28.3385 30.3698 30.3697C28.3386 32.401 25.882 33.4166 23 33.4166ZM8.41671 25.0833H0.083374V20.9166H8.41671V25.0833ZM45.9167 25.0833H37.5834V20.9166H45.9167V25.0833ZM20.9167 8.41658V0.083252H25.0834V8.41658H20.9167ZM20.9167 45.9166V37.5833H25.0834V45.9166H20.9167ZM11.3334 14.1458L6.07296 9.09367L9.04171 6.02075L14.0417 11.2291L11.3334 14.1458ZM36.9584 39.9791L31.9063 34.7187L34.6667 31.8541L39.9271 36.9062L36.9584 39.9791ZM31.8542 11.3333L36.9063 6.07283L39.9792 9.04158L34.7709 14.0416L31.8542 11.3333ZM6.02087 36.9583L11.2813 31.9062L14.1459 34.6666L9.09379 39.927L6.02087 36.9583Z" fill="#91C7EF"/>
</svg>
